<mxfile host="app.diagrams.net" modified="2023-06-22T16:12:25.533Z" agent="Mozilla/5.0 (X11; Ubuntu; Linux x86_64; rv:109.0) Gecko/20100101 Firefox/113.0" etag="qSDIqUuQHcuoqLkZ6GWF" version="21.5.0" type="device">
  <diagram name="Page-1" id="8bPiSh8fG2Vt7bUStwU7">
    <mxGraphModel dx="1135" dy="663" grid="1" gridSize="10" guides="1" tooltips="1" connect="1" arrows="1" fold="1" page="1" pageScale="1" pageWidth="850" pageHeight="1100" math="1" shadow="0">
      <root>
        <mxCell id="0" />
        <mxCell id="1" parent="0" />
        <mxCell id="FTeJ3BNqMcMZCD3cep9n-8" value="" style="endArrow=none;html=1;rounded=0;strokeWidth=2;strokeColor=#4D4D4D;" parent="1" edge="1" source="FTeJ3BNqMcMZCD3cep9n-7">
          <mxGeometry width="50" height="50" relative="1" as="geometry">
            <mxPoint x="210" y="301" as="sourcePoint" />
            <mxPoint x="621" y="355" as="targetPoint" />
          </mxGeometry>
        </mxCell>
        <mxCell id="FTeJ3BNqMcMZCD3cep9n-9" value="" style="endArrow=none;html=1;rounded=0;strokeWidth=3;strokeColor=#990000;" parent="1" edge="1">
          <mxGeometry width="50" height="50" relative="1" as="geometry">
            <mxPoint x="209" y="300" as="sourcePoint" />
            <mxPoint x="300" y="313" as="targetPoint" />
          </mxGeometry>
        </mxCell>
        <mxCell id="FTeJ3BNqMcMZCD3cep9n-2" value="" style="endArrow=none;html=1;rounded=0;strokeWidth=3;" parent="1" edge="1">
          <mxGeometry width="50" height="50" relative="1" as="geometry">
            <mxPoint x="610" y="200" as="sourcePoint" />
            <mxPoint x="210" y="300" as="targetPoint" />
          </mxGeometry>
        </mxCell>
        <mxCell id="FTeJ3BNqMcMZCD3cep9n-1" value="" style="endArrow=none;html=1;rounded=0;strokeWidth=3;" parent="1" edge="1">
          <mxGeometry width="50" height="50" relative="1" as="geometry">
            <mxPoint x="550" y="510" as="sourcePoint" />
            <mxPoint x="210" y="300" as="targetPoint" />
          </mxGeometry>
        </mxCell>
        <mxCell id="FTeJ3BNqMcMZCD3cep9n-10" value="&lt;font&gt;&lt;b&gt;r&lt;/b&gt;&lt;/font&gt;" style="text;html=1;strokeColor=none;fillColor=none;align=center;verticalAlign=middle;whiteSpace=wrap;rounded=0;fontSize=16;fontColor=#990000;" parent="1" vertex="1">
          <mxGeometry x="245" y="284.5" width="60" height="30" as="geometry" />
        </mxCell>
        <mxCell id="FTeJ3BNqMcMZCD3cep9n-15" value="&lt;font size=&quot;1&quot; color=&quot;#4d4d4d&quot;&gt;&lt;span style=&quot;font-size: 14px;&quot;&gt;bisector&lt;/span&gt;&lt;/font&gt;" style="text;html=1;strokeColor=none;fillColor=none;align=center;verticalAlign=middle;whiteSpace=wrap;rounded=0;fontSize=16;" parent="1" vertex="1">
          <mxGeometry x="560" y="322.5" width="80" height="30" as="geometry" />
        </mxCell>
        <mxCell id="FTeJ3BNqMcMZCD3cep9n-20" value="&lt;b&gt;$$A$$&lt;/b&gt;" style="text;html=1;strokeColor=none;fillColor=none;align=center;verticalAlign=middle;whiteSpace=wrap;rounded=0;fontSize=16;" parent="1" vertex="1">
          <mxGeometry x="531" y="510" width="60" height="30" as="geometry" />
        </mxCell>
        <mxCell id="FTeJ3BNqMcMZCD3cep9n-21" value="&lt;b&gt;$$B$$&lt;/b&gt;" style="text;html=1;strokeColor=none;fillColor=none;align=center;verticalAlign=middle;whiteSpace=wrap;rounded=0;fontSize=16;" parent="1" vertex="1">
          <mxGeometry x="163" y="280" width="60" height="30" as="geometry" />
        </mxCell>
        <mxCell id="FTeJ3BNqMcMZCD3cep9n-22" value="&lt;b&gt;$$C$$&lt;/b&gt;" style="text;html=1;strokeColor=none;fillColor=none;align=center;verticalAlign=middle;whiteSpace=wrap;rounded=0;fontSize=16;" parent="1" vertex="1">
          <mxGeometry x="588" y="173" width="60" height="30" as="geometry" />
        </mxCell>
        <mxCell id="FTeJ3BNqMcMZCD3cep9n-24" value="&lt;br&gt;&lt;div&gt;&lt;b&gt;$$I_1$$&lt;/b&gt;&lt;/div&gt;&lt;div&gt;&lt;b&gt;&lt;br&gt;&lt;/b&gt;&lt;/div&gt;" style="text;html=1;strokeColor=none;fillColor=none;align=center;verticalAlign=middle;whiteSpace=wrap;rounded=0;fontSize=16;" parent="1" vertex="1">
          <mxGeometry x="373" y="386.5" width="60" height="30" as="geometry" />
        </mxCell>
        <mxCell id="FTeJ3BNqMcMZCD3cep9n-25" value="&lt;br&gt;&lt;div&gt;&lt;b&gt;$$I_3$$&lt;/b&gt;&lt;/div&gt;&lt;div&gt;&lt;b&gt;&lt;br&gt;&lt;/b&gt;&lt;/div&gt;" style="text;html=1;strokeColor=none;fillColor=none;align=center;verticalAlign=middle;whiteSpace=wrap;rounded=0;fontSize=16;" parent="1" vertex="1">
          <mxGeometry x="391.5" y="249.5" width="60" height="30" as="geometry" />
        </mxCell>
        <mxCell id="laDjZDlIMR3pNl8DKsQD-1" value="" style="ellipse;whiteSpace=wrap;html=1;aspect=fixed;fillColor=none;strokeWidth=3;strokeColor=#006600;" vertex="1" parent="1">
          <mxGeometry x="253" y="400" width="180" height="180" as="geometry" />
        </mxCell>
        <mxCell id="laDjZDlIMR3pNl8DKsQD-2" value="" style="ellipse;whiteSpace=wrap;html=1;aspect=fixed;fillColor=none;strokeWidth=3;strokeColor=#006600;" vertex="1" parent="1">
          <mxGeometry x="305" y="68" width="180" height="180" as="geometry" />
        </mxCell>
        <mxCell id="FTeJ3BNqMcMZCD3cep9n-7" value="" style="ellipse;whiteSpace=wrap;html=1;aspect=fixed;" parent="1" vertex="1">
          <mxGeometry x="297.5" y="311.5" width="3" height="3" as="geometry" />
        </mxCell>
        <mxCell id="FTeJ3BNqMcMZCD3cep9n-3" value="" style="ellipse;whiteSpace=wrap;html=1;aspect=fixed;fillColor=none;strokeWidth=3;strokeColor=#006600;" parent="1" vertex="1">
          <mxGeometry x="209" y="223" width="180" height="180" as="geometry" />
        </mxCell>
        <mxCell id="laDjZDlIMR3pNl8DKsQD-4" value="" style="endArrow=none;html=1;rounded=0;strokeWidth=3;strokeColor=#990000;" edge="1" parent="1">
          <mxGeometry width="50" height="50" relative="1" as="geometry">
            <mxPoint x="393" y="413" as="sourcePoint" />
            <mxPoint x="347" y="482" as="targetPoint" />
          </mxGeometry>
        </mxCell>
        <mxCell id="laDjZDlIMR3pNl8DKsQD-5" value="" style="ellipse;whiteSpace=wrap;html=1;aspect=fixed;" vertex="1" parent="1">
          <mxGeometry x="346.5" y="234.5" width="3" height="3" as="geometry" />
        </mxCell>
        <mxCell id="laDjZDlIMR3pNl8DKsQD-6" value="" style="endArrow=none;html=1;rounded=0;strokeWidth=3;strokeColor=#990000;" edge="1" parent="1">
          <mxGeometry width="50" height="50" relative="1" as="geometry">
            <mxPoint x="397" y="169" as="sourcePoint" />
            <mxPoint x="417" y="247" as="targetPoint" />
          </mxGeometry>
        </mxCell>
        <mxCell id="laDjZDlIMR3pNl8DKsQD-7" value="" style="ellipse;whiteSpace=wrap;html=1;aspect=fixed;" vertex="1" parent="1">
          <mxGeometry x="395.5" y="167.5" width="3" height="3" as="geometry" />
        </mxCell>
        <mxCell id="laDjZDlIMR3pNl8DKsQD-8" value="" style="endArrow=none;html=1;rounded=0;strokeWidth=1;strokeColor=#990000;" edge="1" parent="1">
          <mxGeometry width="50" height="50" relative="1" as="geometry">
            <mxPoint x="412" y="233" as="sourcePoint" />
            <mxPoint x="431" y="228" as="targetPoint" />
          </mxGeometry>
        </mxCell>
        <mxCell id="laDjZDlIMR3pNl8DKsQD-9" value="" style="endArrow=none;html=1;rounded=0;strokeWidth=1;strokeColor=#990000;" edge="1" parent="1">
          <mxGeometry width="50" height="50" relative="1" as="geometry">
            <mxPoint x="431" y="228" as="sourcePoint" />
            <mxPoint x="435" y="243" as="targetPoint" />
          </mxGeometry>
        </mxCell>
        <mxCell id="laDjZDlIMR3pNl8DKsQD-10" value="" style="ellipse;whiteSpace=wrap;html=1;aspect=fixed;" vertex="1" parent="1">
          <mxGeometry x="344.5" y="481.5" width="3" height="3" as="geometry" />
        </mxCell>
        <mxCell id="laDjZDlIMR3pNl8DKsQD-11" value="" style="endArrow=none;html=1;rounded=0;strokeWidth=1;strokeColor=#990000;" edge="1" parent="1">
          <mxGeometry width="50" height="50" relative="1" as="geometry">
            <mxPoint x="384" y="427" as="sourcePoint" />
            <mxPoint x="399" y="437" as="targetPoint" />
          </mxGeometry>
        </mxCell>
        <mxCell id="laDjZDlIMR3pNl8DKsQD-12" value="" style="endArrow=none;html=1;rounded=0;strokeWidth=1;strokeColor=#990000;" edge="1" parent="1">
          <mxGeometry width="50" height="50" relative="1" as="geometry">
            <mxPoint x="399" y="437" as="sourcePoint" />
            <mxPoint x="408" y="423" as="targetPoint" />
          </mxGeometry>
        </mxCell>
        <mxCell id="laDjZDlIMR3pNl8DKsQD-13" value="&lt;br&gt;&lt;div&gt;&lt;b&gt;$$O_1$$&lt;/b&gt;&lt;/div&gt;&lt;div&gt;&lt;b&gt;&lt;br&gt;&lt;/b&gt;&lt;/div&gt;" style="text;html=1;strokeColor=none;fillColor=none;align=center;verticalAlign=middle;whiteSpace=wrap;rounded=0;fontSize=16;" vertex="1" parent="1">
          <mxGeometry x="313" y="484.5" width="60" height="30" as="geometry" />
        </mxCell>
        <mxCell id="laDjZDlIMR3pNl8DKsQD-14" value="&lt;br&gt;&lt;div&gt;&lt;b&gt;$$O_2$$&lt;/b&gt;&lt;/div&gt;&lt;div&gt;&lt;b&gt;&lt;br&gt;&lt;/b&gt;&lt;/div&gt;" style="text;html=1;strokeColor=none;fillColor=none;align=center;verticalAlign=middle;whiteSpace=wrap;rounded=0;fontSize=16;" vertex="1" parent="1">
          <mxGeometry x="287.5" y="284.5" width="60" height="30" as="geometry" />
        </mxCell>
        <mxCell id="laDjZDlIMR3pNl8DKsQD-15" value="&lt;br&gt;&lt;div&gt;&lt;b&gt;$$O_3$$&lt;/b&gt;&lt;/div&gt;&lt;div&gt;&lt;b&gt;&lt;br&gt;&lt;/b&gt;&lt;/div&gt;" style="text;html=1;strokeColor=none;fillColor=none;align=center;verticalAlign=middle;whiteSpace=wrap;rounded=0;fontSize=16;" vertex="1" parent="1">
          <mxGeometry x="365" y="137.5" width="60" height="30" as="geometry" />
        </mxCell>
        <mxCell id="laDjZDlIMR3pNl8DKsQD-16" value="" style="ellipse;whiteSpace=wrap;html=1;aspect=fixed;" vertex="1" parent="1">
          <mxGeometry x="391.5" y="412.5" width="3" height="3" as="geometry" />
        </mxCell>
        <mxCell id="laDjZDlIMR3pNl8DKsQD-17" value="" style="ellipse;whiteSpace=wrap;html=1;aspect=fixed;" vertex="1" parent="1">
          <mxGeometry x="320" y="400" width="3" height="3" as="geometry" />
        </mxCell>
        <mxCell id="laDjZDlIMR3pNl8DKsQD-18" value="" style="ellipse;whiteSpace=wrap;html=1;aspect=fixed;" vertex="1" parent="1">
          <mxGeometry x="416.5" y="246.5" width="3" height="3" as="geometry" />
        </mxCell>
        <mxCell id="laDjZDlIMR3pNl8DKsQD-20" value="&lt;br&gt;&lt;div&gt;&lt;b&gt;$$I_{12}$$&lt;/b&gt;&lt;/div&gt;&lt;div&gt;&lt;b&gt;&lt;br&gt;&lt;/b&gt;&lt;/div&gt;" style="text;html=1;strokeColor=none;fillColor=none;align=center;verticalAlign=middle;whiteSpace=wrap;rounded=0;fontSize=16;" vertex="1" parent="1">
          <mxGeometry x="284.5" y="370" width="60" height="30" as="geometry" />
        </mxCell>
        <mxCell id="laDjZDlIMR3pNl8DKsQD-21" value="&lt;br&gt;&lt;div&gt;&lt;b&gt;$$I_{23}$$&lt;/b&gt;&lt;/div&gt;&lt;div&gt;&lt;b&gt;&lt;br&gt;&lt;/b&gt;&lt;/div&gt;" style="text;html=1;strokeColor=none;fillColor=none;align=center;verticalAlign=middle;whiteSpace=wrap;rounded=0;fontSize=16;" vertex="1" parent="1">
          <mxGeometry x="329" y="206.5" width="60" height="30" as="geometry" />
        </mxCell>
        <mxCell id="laDjZDlIMR3pNl8DKsQD-22" value="&lt;font&gt;&lt;b&gt;r&lt;/b&gt;&lt;/font&gt;" style="text;html=1;strokeColor=none;fillColor=none;align=center;verticalAlign=middle;whiteSpace=wrap;rounded=0;fontSize=16;fontColor=#990000;" vertex="1" parent="1">
          <mxGeometry x="388" y="180" width="60" height="30" as="geometry" />
        </mxCell>
        <mxCell id="laDjZDlIMR3pNl8DKsQD-23" value="&lt;font&gt;&lt;b&gt;r&lt;/b&gt;&lt;/font&gt;" style="text;html=1;strokeColor=none;fillColor=none;align=center;verticalAlign=middle;whiteSpace=wrap;rounded=0;fontSize=16;fontColor=#990000;" vertex="1" parent="1">
          <mxGeometry x="328" y="430" width="60" height="30" as="geometry" />
        </mxCell>
      </root>
    </mxGraphModel>
  </diagram>
</mxfile>
